<?xml version="1.0" encoding="utf-8"?>
<!-- Generator: Adobe Illustrator 25.3.1, SVG Export Plug-In . SVG Version: 6.00 Build 0)  -->
<svg version="1.1" id="Layer_1" xmlns="http://www.w3.org/2000/svg" xmlns:xlink="http://www.w3.org/1999/xlink" x="0px" y="0px"
	 viewBox="0 0 512 640" style="enable-background:new 0 0 512 640;" xml:space="preserve">
<g>
	<g>
		<path d="M413.2,139.7H98.8c-12.8,0-23.2,10.4-23.2,23.2v186.2c0,12.8,10.4,23.2,23.2,23.2h314.3c12.8,0,23.2-10.4,23.2-23.2V162.9
			C436.3,150.1,426,139.7,413.2,139.7z M397.5,158.7c2.4,0,3.6,2.9,1.9,4.6l-66.6,66.6l-13.5,13.5L259,303.7c-1,1-2.3,1.2-2.9,1.2
			c-0.7,0-1.9-0.2-2.9-1.2l-60.3-60.3l-13.5-13.5l-66.6-66.6c-1.7-1.7-0.5-4.6,1.9-4.6L397.5,158.7L397.5,158.7z M94.7,328.1V178.6
			c0-2.4,2.9-3.6,4.6-1.9l66.4,66.4c1,1,1.1,2.5,0.2,3.6l-66.4,83C97.9,331.7,94.7,330.6,94.7,328.1z M108.4,348.9l70.6-88.2
			c1-1.3,2.9-1.4,4-0.2l56.3,56.3c2.9,2.9,6.5,5.3,10.5,6.3c8.3,2.2,16.8-0.2,22.6-6l56.6-56.7c1.1-1.1,3-1,4,0.2l70.6,88.2
			c1.4,1.8,0.2,4.4-2.1,4.4h-291C108.2,353.3,107,350.7,108.4,348.9z M412.6,329.7l-66.4-83c-0.9-1.1-0.8-2.6,0.2-3.6l66.4-66.4
			c1.7-1.7,4.6-0.5,4.6,1.9v149.5C417.3,330.6,414.1,331.7,412.6,329.7z"/>
	</g>
</g>
</svg>
