<?xml version="1.0" encoding="utf-8"?>
<!-- Generator: Adobe Illustrator 25.3.1, SVG Export Plug-In . SVG Version: 6.00 Build 0)  -->
<svg version="1.1" id="Layer_1" xmlns="http://www.w3.org/2000/svg" xmlns:xlink="http://www.w3.org/1999/xlink" x="0px" y="0px"
	 viewBox="0 0 512 512" style="enable-background:new 0 0 512 512;" xml:space="preserve">
<g>
	<g>
		<path d="M479.2,91H32.9C14.8,91,0,105.7,0,123.9v264.3C0,406.4,14.8,421,32.9,421H479c18.2,0,32.9-14.8,32.9-32.9V123.9
			C512,105.7,497.4,91,479.2,91z M456.9,117.9c3.4,0,5.1,4.1,2.7,6.5l-94.5,94.5l-19.2,19.2l-85.6,85.6c-1.4,1.4-3.3,1.7-4.1,1.7
			c-1,0-2.7-0.3-4.1-1.7l-85.6-85.6l-19.2-19.2l-94.5-94.5c-2.4-2.4-0.7-6.5,2.7-6.5L456.9,117.9L456.9,117.9z M27.1,358.4V146.2
			c0-3.4,4.1-5.1,6.5-2.7l94.3,94.3c1.4,1.4,1.6,3.5,0.3,5.1L33.9,360.7C31.7,363.5,27.1,361.9,27.1,358.4z M46.6,387.9l100.2-125.2
			c1.4-1.8,4.1-2,5.7-0.3l79.9,79.9c4.1,4.1,9.2,7.5,14.9,8.9c11.8,3.1,23.8-0.3,32.1-8.5l80.3-80.5c1.6-1.6,4.3-1.4,5.7,0.3
			l100.2,125.2c2,2.6,0.3,6.2-3,6.2H49.5C46.3,394.2,44.6,390.5,46.6,387.9z M478.4,360.7l-94.3-117.8c-1.3-1.6-1.1-3.7,0.3-5.1
			l94.3-94.3c2.4-2.4,6.5-0.7,6.5,2.7v212.2C485,361.9,480.5,363.5,478.4,360.7z"/>
	</g>
</g>
</svg>
