<?xml version="1.0" encoding="utf-8"?>
<!-- Generator: Adobe Illustrator 25.3.1, SVG Export Plug-In . SVG Version: 6.00 Build 0)  -->
<svg version="1.1" id="hamenu" xmlns="http://www.w3.org/2000/svg" xmlns:xlink="http://www.w3.org/1999/xlink" x="0px" y="0px"
	 viewBox="0 0 80 80" style="enable-background:new 0 0 80 80;" xml:space="preserve">
<style type="text/css">
	.st10{fill:#5A6264;}
</style>
<path class="st10" d="M34.3,39.7c0,2.9,2.4,5.3,5.3,5.3c2.9,0,5.3-2.4,5.3-5.3c0-2.9-2.4-5.3-5.3-5.3S34.3,36.8,34.3,39.7z"/>
<path class="st10" d="M34.3,15.9c0,2.9,2.4,5.3,5.3,5.3c2.9,0,5.3-2.4,5.3-5.3s-2.4-5.3-5.3-5.3S34.3,13,34.3,15.9z"/>
<path class="st10" d="M34.3,63.4c0,2.9,2.4,5.4,5.3,5.4c2.9,0,5.3-2.4,5.3-5.4c0-2.9-2.4-5.4-5.3-5.4C36.7,58.1,34.3,60.5,34.3,63.4z
	"/>
</svg>
