<svg version="3.1" xmlns="http://www.w3.org/2000/svg" xmlns:xlink="http://www.w3.org/1999/xlink" x="0px" y="0px"
	 viewBox="0 0 600 600" style="enable-background:new 0 0 600 600;" xml:space="preserve">
<style type="text/css">
	.st0{display:none;}
	.st1{fill:none;stroke:#5A6264;stroke-width:3;stroke-linecap:round;stroke-linejoin:round;stroke-miterlimit:10;}
	.st2{display:inline;fill:none;stroke:#5A6264;stroke-width:3;stroke-linecap:round;stroke-linejoin:round;stroke-miterlimit:10;}
</style>
<g id="Layer_3">
	<g>
		<g>
			<g>
				<path class="st1" d="M217.4,450.4c-68.9-163.7-28.4-328.2,47.8-290.2c35.2-57.4,133,66.3,79.1,261.5"/>
				<path class="st1" d="M234.2,90.9c-46-19.7-80.8,28.6-92.5,52.7c-37.2,75.9-8.7,152.7-23.7,235.6c20.8,36.8,57.7,63.6,99.3,70.8"
					/>
				<path class="st1" d="M344.3,421.7c38.3-12.9,66.6-68.4,66.6-68.4s-10.4-188.9-66.6-245.1c-37.4-37.4-89.5-37.8-110.1-17.3"/>
			</g>
		</g>
	</g>
	<path class="st1" d="M359.7,292.7c-11.2,34.1-45.6,65-81.3,68.9s-77.1-23-95.5-53.8"/>
	<path class="st1" d="M303.1,210.8c10.1-6,21.6-9.2,31.9-1.8"/>
	<path class="st1" d="M224.9,230.3c-12.1,1.7-27.6,10.4-31.4,26.1"/>
	<path class="st1" d="M230.1,262.7c-6.3-1.1-20.1-2.3-24.9,15.3c4.9-8.2,12.2-16.1,24.6-12.4C193.2,275.9,206,277.8,230.1,262.7z"/>
	<path class="st1" d="M310.6,243.9c17.3-16.2,27.6-12.8,33.7-6.2c-9.1-2.5-19-0.5-26.7,5.4c8.8-5.1,17.4-3.1,21.5-2.9"/>
	<path class="st1" d="M272.5,281.6c6.7,2,14.7-1.8,17.3-8.3"/>
	<path class="st1" d="M234.6,317.8c12.4-10.9,29.7-14,46-16.3c16.4-2.3,33.6-4.6,46.8-14.5c-1.8,12.8-5.9,25.7-14.2,35.7
		c-9.8,11.7-25.1,18.6-40.4,18C257.6,340,242.8,332,234.6,317.8z"/>
	<path class="st1" d="M348.2,406.6c-20.9-4.2-28.8-9.8-37.9-54.7"/>
	<path class="st1" d="M157.4,466.9c-23.3,20.8-42.4,48.1-46.1,80.3c78.2,78.2,331.3,48.9,378.4-38.6c1.5-2.8-23.6-79.8-124.4-98.4"
		/>
	<path class="st1" d="M258.4,395.7c-14,20.4-34.6,26-47.6,34.1"/>
	<path class="st1" d="M190.3,442c-11.7,7.8-28.6,20.6-32.9,24.9"/>
	<path class="st1" d="M261.6,362.1c6.1,8.1,2.6,25.3-3.2,33.6"/>
	<g class="sprout">
	<path class="st1" d="M234.5,89.5c-1.8-8.1-3.2-16.4-3-24.7s2.3-16.7,10.3-24.9c5-9.1,13.2-16.2,22.3-21.3s19-8.6,28.9-11.9
		c0,10.8-3.2,22.4-11.6,29.2c-5.6,4.5-12.9,6.4-20,6.7c-7.2,0.3-14.3-0.9-20.6-2.9c-5.3-6.8-8.4-15.4-14.8-21
		c-4.2-3.6-9.4-5.8-14.6-7.8c-4.2-1.7-8.3-3.3-12.5-5c3,8.9,2.4,19,7.3,27.1c3.4,5.7,9.4,9.7,15.8,11.1s13.4,0.4,19.3-2.6"/>
	</g>
	<path class="st1" d="M234.9,353.3c-11.7,0.5-38.6,12.2-43.4,14.7"/>
	<path class="st1" d="M357.8,351.9c-19.3-4.6-35.5-3.7-40.7-3.7"/>
	<path class="st1" d="M174.1,454.5c58.7,69.8,212.3,39.9,253.6-21.5"/>
</g>
</svg>
