<?xml version="1.0" encoding="utf-8"?>
<!-- Generator: Adobe Illustrator 25.3.1, SVG Export Plug-In . SVG Version: 6.00 Build 0)  -->
<svg version="1.1" xmlns="http://www.w3.org/2000/svg" xmlns:xlink="http://www.w3.org/1999/xlink" x="0px" y="0px"
	 viewBox="0 0 600 600" style="enable-background:new 0 0 600 600;" xml:space="preserve">
<style type="text/css">
	.st0{fill:none;stroke:#5A6264;stroke-width:3;stroke-linecap:round;stroke-linejoin:round;stroke-miterlimit:10;}
	.st1{display:none;}
	.st2{display:inline;fill:none;stroke:#5A6264;stroke-width:3;stroke-linecap:round;stroke-linejoin:round;stroke-miterlimit:10;}
</style>
<g id="Layer_3">
	<g>
		<g>
			<g>
				<path class="st0" d="M216.7,445.1c-49.1-116.6-20.3-233.9,34-206.8c25.1-40.9,94.7,47.2,56.4,186.3"/>
				<path class="st0" d="M228.7,188.9c-32.8-14-57.5,20.4-65.9,37.5c-26.5,54.1-6.2,108.8-16.9,167.9c14.8,26.2,41.1,45.3,70.8,50.5
					"/>
				<path class="st0" d="M307.1,424.6c27.3-9.2,47.5-48.8,47.5-48.8s-7.4-134.6-47.5-174.6c-26.7-26.7-63.8-26.9-78.5-12.3"/>
			</g>
		</g>
	</g>
	<path class="st0" d="M318.1,332.7c-8,24.3-32.5,46.3-57.9,49.1c-25.4,2.8-55-16.4-68-38.4"/>
	<path class="st0" d="M277.8,274.4c7.2-4.3,15.4-6.5,22.7-1.3"/>
	<path class="st0" d="M222.1,288.2c-8.6,1.2-19.7,7.4-22.3,18.6"/>
	<path class="st0" d="M225.8,311.3c-4.5-0.8-14.3-1.6-17.8,10.9c3.5-5.9,8.7-11.5,17.5-8.8C199.4,320.8,208.6,322.1,225.8,311.3z"/>
	<path class="st0" d="M283.2,297.9c12.3-11.5,19.7-9.1,24-4.4c-6.5-1.8-13.5-0.4-19,3.8c6.3-3.6,12.4-2.2,15.3-2.1"/>
	<path class="st0" d="M256,324.8c4.8,1.5,10.5-1.3,12.3-5.9"/>
	<path class="st0" d="M229,350.6c8.8-7.8,21.1-10,32.8-11.6c11.7-1.7,23.9-3.3,33.4-10.3c-1.3,9.2-4.2,18.3-10.1,25.4
		c-7,8.3-17.9,13.2-28.8,12.8C245.3,366.4,234.8,360.7,229,350.6z"/>
	<path class="st0" d="M309.9,413.9c-14.9-3-20.5-7-27-39"/>
	<path class="st0" d="M174,456.8c-16.6,14.8-30.2,34.2-32.8,57.2c55.7,55.7,236.1,34.9,269.6-27.5c1.1-2-16.8-56.9-88.6-70.1"/>
	<path class="st0" d="M246,406.1c-10,14.6-24.6,18.5-33.9,24.3"/>
	<path class="st0" d="M197.4,439.1c-8.3,5.5-20.4,14.7-23.4,17.7"/>
	<path class="st0" d="M248.2,382.2c4.3,5.8,1.8,18-2.3,24"/>
	<path class="st0" d="M228.9,187.9c-1.3-5.8-2.3-11.7-2.1-17.6c0.2-5.9,1.6-11.9,7.4-17.7c3.6-6.5,9.4-11.5,15.9-15.2
		c6.5-3.7,13.5-6.1,20.6-8.4c0,7.7-2.3,15.9-8.3,20.8c-4,3.2-9.2,4.6-14.3,4.8c-5.1,0.2-10.2-0.7-14.7-2c-3.8-4.8-6-10.9-10.6-15
		c-3-2.6-6.7-4.1-10.4-5.6c-3-1.2-5.9-2.4-8.9-3.6c2.1,6.4,1.7,13.6,5.2,19.3c2.4,4,6.7,6.9,11.3,7.9c4.6,1,9.5,0.3,13.8-1.8"/>
	<path class="st0" d="M229.2,375.9c-8.3,0.4-27.5,8.7-30.9,10.5"/>
	<path class="st0" d="M316.8,374.9c-13.7-3.3-25.3-2.6-29-2.6"/>
	<path class="st0" d="M185.8,448c41.8,49.8,151.2,28.5,180.7-15.3"/>
</g>
<g id="outline" class="st1">
	<path class="st2" d="M216.7,445.1c-49.1-116.6-20.3-233.9,34-206.8c25.1-40.9,94.7,47.2,56.4,186.3"/>
	<path class="st2" d="M228.7,188.9c-32.8-14-57.5,20.4-65.9,37.5c-26.5,54.1-6.2,108.8-16.9,167.9c14.8,26.2,41.1,45.3,70.8,50.5"/>
	<path class="st2" d="M307.1,424.6c27.3-9.2,47.5-48.8,47.5-48.8s-7.4-134.6-47.5-174.6c-26.7-26.7-63.8-26.9-78.5-12.3"/>
	<path class="st2" d="M318.1,332.7c-8,24.3-32.5,46.3-57.9,49.1c-25.4,2.8-55-16.4-68-38.4"/>
	<path class="st2" d="M277.8,274.4c7.2-4.3,15.4-6.5,22.7-1.3"/>
	<path class="st2" d="M222.1,288.2c-8.6,1.2-19.7,7.4-22.3,18.6"/>
	<path class="st2" d="M225.8,311.3c-4.5-0.8-14.3-1.6-17.8,10.9c3.5-5.9,8.7-11.5,17.5-8.8C199.4,320.8,208.6,322.1,225.8,311.3z"/>
	<path class="st2" d="M283.2,297.9c12.3-11.5,19.7-9.1,24-4.4c-6.5-1.8-13.5-0.4-19,3.8c6.3-3.6,12.4-2.2,15.3-2.1"/>
	<path class="st2" d="M256,324.8c4.8,1.5,10.5-1.3,12.3-5.9"/>
	<path class="st2" d="M229,350.6c8.8-7.8,21.1-10,32.8-11.6c11.7-1.7,23.9-3.3,33.4-10.3c-1.3,9.2-4.2,18.3-10.1,25.4
		c-7,8.3-17.9,13.2-28.8,12.8C245.3,366.4,234.8,360.7,229,350.6z"/>
	<path class="st2" d="M309.9,413.9c-14.9-3-20.5-7-27-39"/>
	<path class="st2" d="M174,456.8c-16.6,14.8-30.2,34.2-32.8,57.2c55.7,55.7,236.1,34.9,269.6-27.5c1.1-2-16.8-56.9-88.6-70.1"/>
	<path class="st2" d="M246,406.1c-10,14.6-24.6,18.5-33.9,24.3"/>
	<path class="st2" d="M197.4,439.1c-8.3,5.5-20.4,14.7-23.4,17.7"/>
	<path class="st2" d="M248.2,382.2c4.3,5.8,1.8,18-2.3,24"/>
	<path class="st2" d="M228.9,187.9c-1.3-5.8-2.3-11.7-2.1-17.6c0.2-5.9,1.6-11.9,7.4-17.7c3.6-6.5,9.4-11.5,15.9-15.2
		c6.5-3.7,13.5-6.1,20.6-8.4c0,7.7-2.3,15.9-8.3,20.8c-4,3.2-9.2,4.6-14.3,4.8c-5.1,0.2-10.2-0.7-14.7-2c-3.8-4.8-6-10.9-10.6-15
		c-3-2.6-6.7-4.1-10.4-5.6c-3-1.2-5.9-2.4-8.9-3.6c2.1,6.4,1.7,13.6,5.2,19.3c2.4,4,6.7,6.9,11.3,7.9c4.6,1,9.5,0.3,13.8-1.8"/>
	<path class="st2" d="M229.2,375.9c-8.3,0.4-27.5,8.7-30.9,10.5"/>
	<path class="st2" d="M316.8,374.9c-13.7-3.3-25.3-2.6-29-2.6"/>
	<path class="st2" d="M185.8,448c41.8,49.8,151.2,28.5,180.7-15.3"/>
</g>
</svg>
