<?xml version="1.0" encoding="utf-8"?>
<!-- Generator: Adobe Illustrator 25.3.1, SVG Export Plug-In . SVG Version: 6.00 Build 0)  -->
<svg version="1.1" xmlns="http://www.w3.org/2000/svg" xmlns:xlink="http://www.w3.org/1999/xlink" x="0px" y="0px"
	 viewBox="0 0 600 600" style="enable-background:new 0 0 600 600;" xml:space="preserve">
<style type="text/css">
	<div class="st0"></div>{fill:#9E9E9E;stroke:#6E6E6E;stroke-width:2;stroke-miterlimit:10;}
	.st1{fill:#6E6E6E;stroke:#6E6E6E;stroke-width:2;stroke-miterlimit:10;}
	.st2{fill:#D1ABC1;stroke:#6E6E6E;stroke-width:2;stroke-miterlimit:10;}
	.st3{fill:none;stroke:#6E6E6E;stroke-width:2;stroke-miterlimit:10;}
	.st4{fill:#579165;stroke:#0F8536;stroke-width:2;stroke-miterlimit:10;}
	.st5{fill:#7CCF8F;stroke:#0F8536;stroke-width:2;stroke-miterlimit:10;}
	.st6{fill:#FFFFFF;stroke:#0F8536;stroke-width:2;stroke-miterlimit:10;}
</style>
<g id="Cat_body">
	<path class="st0" d="M237.8,421.5c12.1-4.1,25.9-3.1,37.1,3.2s19.3,17.8,20.9,30.5c1.1,8.5,0.9,59.9-63.2,45.8
		c-19.1-4.2-38.7-12.8-49-29.5c-12.9-20.8-7.3-49.6,8.5-68.3c27.2-32.1,91.6-34.1,118.4-29.3c27.2,4.9,42.6,17.7,53.4,35.1
		c10.7,36.5-15.7,56.9-26.6,62.9c-17.3,9.7-27.4,11.4-45.3,10.3"/>
	<path class="st0" d="M375.4,476.3c-1.2,5.4-4.1,7-6.8,5.2s-3.7-5.3-3.6-8.5c0-1.9,0.4-3.8,1.4-5.4c2.5-4.3,8-5.7,13-5.9
		c3.2-0.1,6.6,0.2,9.2,2.1c1.3,0.9,2.3,2.1,3.1,3.4c1.4,2.3,2.3,5.1,1.8,7.7c-0.5,2.7-2.5,5.1-5.1,5.6s-4.4-1.5-4.6-4.1
		c0,2.7-1.6,5.5-4.2,5.5C377.2,482.1,374.7,479.4,375.4,476.3z"/>
	<path class="st0" d="M324.3,482.4c-1.2,5.4-4.1,7-6.8,5.2c-2.6-1.8-3.7-5.3-3.6-8.5c0-1.9,0.4-3.8,1.4-5.4c2.5-4.3,8-5.7,13-5.9
		c3.2-0.1,6.6,0.2,9.2,2.1c1.3,0.9,2.3,2.1,3.1,3.4c1.4,2.3,2.3,5.1,1.8,7.7c-0.5,2.7-2.5,5.1-5.1,5.6c-2.7,0.5-4.4-1.5-4.6-4.1
		c0,2.7-1.6,5.5-4.2,5.5C326,488.2,323.6,485.5,324.3,482.4z"/>
</g>
<g id="Cat_tail">
	<path class="st0" d="M190.8,471.2c25.3,40.3,79.3,41.1,97.4,36.2c23.9-6.4,39.3-27.1,32.1-35.4c-9.6-10.9-22.8,15.8-41.4,18
		c-31.3,3.8-60.7-12.5-66.6-22.9"/>
	<path class="st1" d="M296.1,481.9c1.2-1.4,2.6-2.6,4.1-3.7c2.1,6.2,5.4,12,9.6,16.9c0.2,0.3,0.5,0.6,0.4,0.9c0,0.5-0.5,0.7-0.9,1
		c-1.4,0.7-2.8,1.4-4.2,1.9C300.1,494.6,296.7,488.3,296.1,481.9z"/>
	<path class="st1" d="M280.8,489.6c1.4-0.3,2.8-0.6,4.1-1c0,6.4,1.4,12.9,4.1,18.7c-2.6,0.7-5.2,1-7.8,0.9
		c-1.4-4.6-2.3-9.4-2.6-14.2C278.6,492.6,278.2,490.2,280.8,489.6z"/>
	<path class="st1" d="M255.6,489.6c1.8,0.5,3.7,0.9,5.5,1.4c-0.3,3.1-1.1,6.1-1.3,9.2s0.1,6.4,2,8.9c-1.8-0.1-3.7-0.2-5.5-0.3
		c-0.7,0-1.4-0.1-1.9-0.4c-0.8-0.5-1.2-1.6-1.3-2.5c-0.6-3.5-0.2-7.1,0.4-10.6C253.8,493.2,254.2,491.2,255.6,489.6z"/>
	<path class="st1" d="M266.7,469.4"/>
</g>
<g id="cat_head">
	<path class="st0" d="M304.9,404.4c-6,9.1-9.8,25.3-4.1,36.8c7.7,15.7,23.1,23,34.8,25.2c14.3,2.6,28.4,1.3,40.8-6.5
		c12.4-7.8,19-23.8,17.2-40c-1.4-12.6-16.8-31.1-45.6-34.5C330.9,383.3,313.7,391.1,304.9,404.4z"/>
	<path class="st01" d="M314.1,431.7c3.9,3.1,9.2,4.4,14,3.4"/>
	<path class="st01" d="M363.9,438.5c2.6,0.8,5.2,1.4,7.9,1.5c2.7,0.1,5.4-0.5,7.6-2.1"/>
	<path class="st2" d="M340,451.8c2.2-0.3,7.3,0.3,7.3,0.3c2.9,0.2-3.2,6-3.7,5.8c-0.2-0.1-0.4-0.2-0.6-0.4
		C341.5,455.8,338,452,340,451.8z"/>
</g>
<g id="Cat_whiskers">
	<path class="st3" d="M283.9,455.6c9.5-4.5,19.5-7.9,29.8-10"/>
	<path class="st3" d="M289.3,477.6c8.7-9.4,18.5-17.9,29-25.3"/>
	<path class="st3" d="M371.8,452.2c8.6,5.5,17.4,10.7,26.4,15.6"/>
	<path class="st3" d="M376.9,448.3c11.4,2.3,22.8,4.3,34.3,5.9"/>
</g>
<g id="cat_ears">
	<path class="st0" d="M306.9,413.5c-9.3-11.2-20.5-16.2-32.9-19.8c17.1-8.1,33.8-9.5,49.5,0.9"/>
	<path class="st0" d="M375.3,400.3c12.2-6.7,34-1.8,45.2,6.1c0,0-26.1,7-32.1,14.5"/>
</g>
<g id="stem">
	<path class="st4" d="M386.4,217.3c37.7,78.9,54.1,166.8,38.1,251.2c-2,10.3-4.9,21.4-13.6,28.5c7.3,0.5,13.4,0.2,20-1.6
		c15-45.6,14.9-94.5,4.9-141.2S406.3,262.8,386.4,217.3z"/>
</g>
<g id="leaf">
	<g>
		<path class="st5" d="M410.5,318.8c0.7-31.4,9.8-62.5,26.1-89.3c4.3-7.1,9.3-14.1,16.3-18.7c-59.1-5.6-130.2,9.3-295.8,87.8
			c122.2-69.7,217.3-79.2,241.7-103.7c1.9-1.9,2.7-4.7,2.8-7.4c0.1-3.5-1.8-6.7-4-9.5c-9.8-12.3-25.2-18.7-40.4-22.5
			c-15.2-3.8-31-5.5-45.7-10.9c-2.2,6.2-8.1,10.2-13.7,13.6c-15.1,9.1-31.8,12.8-48.4,20.3c5.5,2.5,12.2,4.5,18.1,5.8
			c10.9-12.7,28.7-11.7,45-15.1c1.3-0.3,2.6-0.3,3.8,0.2c3.4,1.2,3.1,4.6,2,7.1c-2.4,5.5-8.3,8.9-14.2,10.1s-12.1,0.6-18.1,0.2
			c-23.6-1.4-47.5,1.4-70.2,8.3c-2.5,0.8-4.8,1.9-6.8,3.6c-5.8,4.8-8.1,11-8.9,18.5c6.1-0.9,12.6-1.6,18.9-2.5
			c1.4-3.3,4.6-5.3,7.8-6.9c15.3-7.8,32.6-11.6,49.7-11.1c3.9,0.1,7.9,0.5,11.4,2.4c3.4,1.9,6.1,5.6,5.8,9.4
			c-27.6,1.3-55.1,4.8-82.6,7.9c-9.7,1.1-18.9,3-27.3,7.3c-8.5,4.3-15.8,11.7-17.8,21c27.9-10.7,56.6-21.4,86.5-21.4
			c1.9,0,3.7,1,4.5,2.7c1.6,3-1,5.4-3.4,6.8c-10.4,6-23.1,6.2-35,5.2c-12-1-27.9,0.1-39.6,2.8c-22.8,5.1-34.8,23.1-44.2,44.5
			c-7,16.1-11.6,34-7.9,51.2c0.4-9.6,9.4-17.5,18.9-18.6c9.6-1.2,19.1,3.2,26.3,9.6c7.2,6.4,11.7,15.4,16.8,23.6
			c0.8-3.3,2.1-11.9,4.9-17c9.3-17.2,23.4-32.9,39.6-44c2.9-2,5.9-3.9,9.5-3.6c2.1,0.1,4.2,1.2,5.2,3.1c2.1,3.8-1.1,8.1-4.2,10.9
			c-16.2,14.6-24.1,25.9-44.2,24.5c18,0.9,21.9,24,37,23.8c2.8,0,32.2-36.3,40.3-56c3.7-9,6.1-19.6,14.8-24.6
			c1.3-0.8,2.9-1.2,4.4-1.1c3.8,0.2,4.8,2.8,5.3,5.2c1.9,8.7-0.8,17.8-3.9,26.1c-7.4,20.3-17.4,39.6-30.2,56.9
			c11.8-13.4,27.4-23.4,44.5-28.6c5-21,9.7-44.2-0.7-63.1c-1.2-2.2-2.6-4.4-2.6-7c0-0.8,0.2-1.6,0.6-2.3c1.3-2.5,3.5-2.3,5.5-2.1
			c5.7,0.6,12,1.4,15.9,5.6c3.4,3.6,4.2,8.9,4.5,13.9c1.1,19.7-3.4,39.8-13,57.1l47.6-14.1c2.9-14.5,5.8-30,0.7-43.9
			c-4.9-13.5-17.6-24-31.9-26.1c-1.2-0.2-2.3-1.1-2.6-2.3c-0.5-2.4,1.9-3.2,3.8-3.6c13.3-2.5,28.4-4.7,39,3.6
			c6.2,4.8,9.6,12.4,11.5,19.9s2.4,15.4,4,23.1C395.2,289.5,402.7,313.6,410.5,318.8z"/>
		<path class="st6" d="M148.1,277.9c0.3-3.6,2.6-6.8,5.5-8.9c2.9-2.2,6.3-3.5,9.7-4.6c9.1-3.1,18.5-5.7,27.9-7.5
			c3.4-0.7,7.4-1.1,9.8,1.4c0.5,0.5,1,1.2,1,1.9c0,0.6-0.2,1.3-0.6,1.8c-1.7,2.8-5.2,4-8.5,4.6c-11.4,2.4-23.3,2-34.3,5.7
			C154.2,273.8,149.8,276,148.1,277.9z"/>
		<path class="st6" d="M345.7,190.2c6.3,3,8.1,8,7.8,9.2c-0.4,1.4-2,2.1-3.4,2.5c-3.5,0.9-10.3,1.1-18.1-7.6
			c-2.1-2.4-0.6-3.7-0.1-4.1C335.9,186.5,342.4,188.6,345.7,190.2z"/>
		<path class="st6" d="M303,214.9c2.8,6.6,9.4,6.4,10.1,5.5c0.5-0.6,0.2-1.6-0.1-2.3C311.5,215.3,302.2,211.9,303,214.9z"/>
	</g>
</g>
</svg>
